# xmcd CD database file
#
# Track frame offsets:
#	150
#	18262
#	35624
#	52836
#	68023
#	84785
#	100422
#	113884
#	130721
#	147033
#	164170
#	183032
#	199344
#	215431
#	233093
#	250980
#	265192
#	283379
#	299166
#
# Disc length: 4229 seconds
#
# Revision: 2
# Processed by: cddbd v1.5.2PL0 Copyright (c) Steve Scherf et al.
# Submitted via: CDex 1.51
#
DISCID=1a108313
DTITLE=Various Artist - Country Radio March 2008
DYEAR=2008
DGENRE=Country
TTITLE0=Sara Evans - Some Things Never Change
TTITLE1=Eagles - Busy Being Fabulous
TTITLE2=Jewel - Stronger Woman
TTITLE3=Jason Michael Carroll - I Can Sleep When I'm Dead
TTITLE4=Dierks Bentley - Trying To Stop Your Leaving
TTITLE5=Keith Anderson - I Still Miss You
TTITLE6=Sarah Johns - He Hates Me
TTITLE7=Trace Adkins - You're Gonna Miss This
TTITLE8=Trent Willmon - Broken In
TTITLE9=Clay Walker - She Likes It In The Morning
TTITLE10=Cross Canadian Ragweed - Cry Lonely
TTITLE11=Phil Stacey - If You Didn't Love Me
TTITLE12=Rissi Palmer - Hold On To Me
TTITLE13=Randy Owen - Braid My Hair
TTITLE14=Kevin Fowler - Best Mistake I Ever Made
TTITLE15=Mando Saenz - I Don't Like It
TTITLE16=Katie Armiger - Make Me Believe
TTITLE17=Rick Huckaby - I Got You Covered
TTITLE18=Jason Matthews - That's What Mamas Do
EXTD=YEAR: 2008
EXTT0=
EXTT1=
EXTT2=
EXTT3=
EXTT4=
EXTT5=
EXTT6=
EXTT7=
EXTT8=
EXTT9=
EXTT10=
EXTT11=
EXTT12=
EXTT13=
EXTT14=
EXTT15=
EXTT16=
EXTT17=
EXTT18=
PLAYORDER=
